<?xml version="1.0" encoding="UTF-8" ?>
<!DOCTYPE svg PUBLIC "-//W3C//DTD SVG 1.1//EN" "http://www.w3.org/Graphics/SVG/1.1/DTD/svg11.dtd">
<svg width="1259pt" height="414pt" viewBox="0 0 1259 414" version="1.1" xmlns="http://www.w3.org/2000/svg">
<g id="#a51011ff">
<path fill="#a51011" opacity="1.00" d=" M 156.00 12.67 C 165.77 12.16 175.58 12.40 185.37 12.58 C 185.75 26.72 185.04 40.89 186.03 55.00 C 186.39 56.98 184.58 58.16 183.46 59.43 C 173.65 69.27 163.97 79.25 154.03 88.96 C 153.14 89.43 152.48 90.12 152.04 91.02 C 144.86 98.51 137.34 105.68 130.14 113.15 C 127.84 115.66 125.30 117.95 123.04 120.51 C 121.18 122.26 119.34 124.04 117.72 126.03 C 116.86 127.02 115.85 127.85 114.85 128.68 C 109.62 134.09 104.34 139.48 98.80 144.58 C 95.40 147.94 92.34 151.64 88.77 154.84 C 85.96 157.28 83.46 160.05 80.82 162.67 C 76.19 167.40 71.41 172.01 66.67 176.63 C 64.13 179.79 61.23 182.63 58.03 185.12 C 56.88 186.31 55.80 187.56 54.74 188.83 C 50.45 192.10 47.01 196.31 43.06 199.97 C 41.29 201.97 38.69 203.47 37.96 206.19 C 46.24 206.29 54.70 206.55 62.88 206.00 C 95.57 172.96 128.72 140.38 161.14 107.10 C 175.83 92.13 190.64 77.29 205.42 62.41 C 206.87 60.88 208.47 59.46 209.59 57.66 C 210.08 49.45 209.66 41.20 209.73 32.97 C 209.48 26.85 209.91 20.69 209.21 14.60 C 209.32 14.05 209.56 12.97 209.67 12.42 C 219.29 12.41 228.90 12.27 238.51 12.44 C 238.29 27.35 239.16 42.22 238.92 57.13 C 226.98 69.13 215.01 81.10 203.43 93.46 C 167.18 129.89 131.43 166.81 94.97 203.04 C 94.28 203.88 93.89 204.87 93.78 205.99 C 96.30 206.01 98.81 206.01 101.33 206.05 C 106.47 206.14 111.63 205.92 116.77 206.22 C 116.92 206.74 117.22 207.78 117.37 208.30 C 120.77 209.80 122.99 212.88 125.58 215.40 C 129.32 219.04 132.86 222.92 137.06 226.06 C 141.95 230.57 146.48 235.46 151.41 239.93 C 152.90 241.62 154.37 243.33 155.98 244.91 C 173.30 261.96 190.33 279.31 207.66 296.35 C 212.37 301.67 218.18 305.86 222.78 311.28 C 224.63 311.31 226.17 310.55 227.11 308.93 C 229.23 306.56 231.49 304.31 233.66 301.98 C 241.94 293.50 249.85 284.64 258.38 276.41 C 262.11 273.10 265.01 268.99 268.72 265.66 C 274.53 260.47 278.90 253.92 284.71 248.71 C 292.95 239.89 302.29 232.15 310.27 223.07 C 314.98 217.77 320.48 213.24 325.26 208.02 C 325.79 207.82 326.85 207.42 327.38 207.23 C 327.47 206.60 327.65 205.35 327.74 204.73 C 337.23 204.57 346.72 204.58 356.21 204.49 C 355.98 205.13 355.53 206.42 355.30 207.06 C 326.02 236.81 296.81 266.64 267.70 296.56 C 249.25 315.15 231.62 334.53 213.21 353.16 C 211.90 354.41 212.38 356.40 212.23 358.02 C 212.48 372.69 212.62 387.37 212.32 402.04 C 207.04 402.38 201.72 401.70 196.47 402.53 C 194.45 402.13 192.32 401.80 190.41 402.79 C 188.02 401.60 185.24 402.36 182.69 402.23 C 182.53 386.82 182.62 371.40 182.55 356.01 C 181.70 353.33 179.23 351.52 177.22 349.69 C 172.86 344.38 167.43 340.13 162.62 335.27 C 156.90 328.66 150.60 322.60 144.30 316.57 C 139.21 311.06 133.78 305.87 128.15 300.92 C 125.20 297.86 122.64 294.41 119.25 291.79 C 111.19 283.78 102.97 275.92 95.00 267.82 C 93.14 265.85 91.34 263.79 89.24 262.06 C 88.74 261.75 87.74 261.11 87.24 260.80 C 86.97 260.31 86.42 259.34 86.15 258.86 C 85.64 258.61 84.62 258.11 84.11 257.86 C 83.87 257.35 83.40 256.34 83.16 255.83 C 82.70 255.63 81.78 255.22 81.33 255.01 C 74.38 246.16 65.05 239.53 57.66 231.05 C 48.83 222.97 40.37 214.50 31.72 206.25 C 23.71 205.80 15.68 206.28 7.67 206.05 C 15.01 197.64 23.69 190.47 31.46 182.44 C 43.41 170.39 55.99 159.01 67.81 146.85 C 78.82 135.85 89.84 124.90 100.71 113.77 C 118.93 96.63 135.81 78.17 153.63 60.62 C 154.91 59.37 156.39 58.00 156.47 56.07 C 156.61 51.05 156.29 46.03 156.00 41.02 C 155.98 31.57 156.00 22.12 156.00 12.67 M 64.11 206.18 C 64.01 206.57 63.80 207.34 63.70 207.73 C 72.76 216.86 82.07 225.75 91.45 234.56 C 102.42 245.54 113.56 256.35 124.56 267.31 C 124.59 267.34 124.66 267.40 124.69 267.44 C 125.71 268.35 126.61 269.52 127.94 270.02 L 127.66 270.87 L 128.34 271.71 L 129.27 271.65 C 129.81 272.54 130.63 273.24 131.45 273.88 C 132.39 275.26 133.45 276.56 134.67 277.71 C 149.13 291.81 163.33 306.19 177.65 320.43 C 180.05 322.83 182.17 325.61 185.19 327.28 C 187.05 329.82 189.62 331.69 191.67 334.06 C 193.53 335.90 195.05 338.40 197.75 339.10 C 201.51 335.15 205.14 331.08 208.82 327.06 C 208.36 326.49 207.44 325.36 206.99 324.79 C 178.29 296.56 150.10 267.80 121.20 239.77 C 109.30 228.66 98.10 216.82 86.22 205.70 C 78.87 206.16 71.35 205.10 64.11 206.18 Z" />
<path fill="#a51011" opacity="1.00" d=" M 262.56 12.55 C 266.29 11.56 270.18 12.09 273.99 11.99 C 279.81 12.07 285.64 11.77 291.46 12.16 C 291.86 26.45 292.16 40.73 292.03 55.03 C 291.53 57.81 293.99 59.54 295.62 61.35 C 314.84 79.84 333.74 98.65 352.69 117.42 C 363.37 127.02 373.26 137.48 383.92 147.11 C 396.12 159.22 408.86 170.73 421.11 182.78 C 428.67 189.50 435.56 196.94 443.16 203.62 C 451.15 204.19 459.20 203.46 467.21 203.94 C 451.58 219.69 435.98 235.46 420.19 251.04 C 414.81 257.07 408.75 262.45 403.05 268.17 C 391.44 279.51 380.51 291.52 368.95 302.93 C 355.67 316.29 342.85 330.10 329.66 343.56 C 326.58 346.63 323.82 350.05 320.36 352.71 C 319.78 368.56 320.29 384.47 321.00 400.31 C 312.43 401.74 303.68 400.81 295.03 401.14 C 293.58 401.14 290.74 401.25 291.01 399.06 C 290.90 384.26 290.81 369.45 290.47 354.65 C 303.21 340.34 317.18 327.20 330.18 313.13 C 340.07 303.02 349.93 292.90 359.95 282.93 C 365.13 277.12 370.74 271.71 376.24 266.21 C 395.66 246.01 415.73 226.41 435.47 206.51 C 436.56 205.73 436.73 204.42 436.99 203.22 C 430.31 203.00 423.62 203.29 416.94 203.43 C 415.35 203.43 413.70 203.56 412.24 202.85 C 403.15 194.24 394.15 185.53 385.18 176.80 C 369.09 161.67 353.20 146.32 337.51 130.79 C 337.46 130.74 337.37 130.65 337.32 130.60 C 335.78 129.02 334.15 127.54 332.63 125.96 C 329.42 122.31 325.85 119.00 322.37 115.62 C 315.75 109.42 309.55 102.78 302.77 96.75 C 295.26 89.44 287.87 82.01 280.47 74.61 C 279.39 73.70 278.44 72.16 276.79 72.46 C 273.96 76.89 269.47 80.00 266.11 84.03 C 283.55 101.83 301.46 119.18 319.06 136.82 C 329.50 147.49 340.32 157.79 351.21 168.00 C 361.43 177.69 371.49 187.54 381.57 197.37 C 383.81 199.46 385.78 201.90 388.35 203.61 C 395.75 204.66 403.43 203.06 410.80 204.20 C 410.82 204.49 410.88 205.08 410.91 205.37 C 383.64 232.61 356.79 260.28 329.73 287.75 C 310.81 307.25 292.03 326.90 273.12 346.43 C 271.03 349.09 268.28 351.20 266.27 353.89 C 265.78 369.68 266.60 385.50 266.51 401.30 C 260.01 401.19 253.50 401.49 246.99 401.46 C 243.91 401.52 240.78 401.23 237.77 402.04 C 236.58 399.53 236.95 396.71 236.91 394.03 C 237.06 381.02 236.45 368.00 236.73 354.99 C 237.93 352.36 240.54 350.65 242.39 348.46 C 251.99 337.99 262.00 327.92 271.93 317.77 C 283.48 305.08 295.92 293.24 307.77 280.84 C 320.50 267.22 333.89 254.25 346.97 240.97 C 354.63 232.99 362.78 225.48 370.09 217.17 C 373.69 213.83 377.00 210.22 380.51 206.80 C 381.35 205.94 381.94 204.92 382.28 203.74 C 374.46 203.72 366.59 203.28 358.81 204.10 C 349.62 194.20 339.74 184.93 329.71 175.88 C 323.28 169.41 316.77 163.03 310.03 156.90 C 291.48 138.41 272.69 120.17 254.19 101.64 C 253.20 100.79 252.36 99.54 250.98 99.34 C 247.26 102.47 244.10 106.20 240.65 109.60 C 239.27 111.13 237.44 112.56 237.28 114.79 C 237.11 114.63 236.77 114.33 236.60 114.18 C 223.95 127.64 210.38 140.21 197.85 153.79 C 184.98 166.62 172.15 179.49 159.46 192.51 C 155.05 196.60 150.82 200.86 146.73 205.27 C 138.82 205.23 130.91 205.39 123.00 205.40 C 121.38 205.43 119.78 205.14 118.27 204.56 C 137.95 184.50 157.93 164.76 177.46 144.56 C 204.46 117.53 230.94 90.00 257.84 62.88 C 259.91 60.57 263.44 58.59 262.95 54.99 C 262.82 40.85 262.71 26.70 262.56 12.55 Z" />
</g>
<g id="#3c24353b">
<path fill="#3c2435" opacity="0.23" d=" M 152.04 91.02 C 152.48 90.12 153.14 89.43 154.03 88.96 C 154.48 90.77 153.82 91.46 152.04 91.02 Z" />
<path fill="#3c2435" opacity="0.23" d=" M 302.77 96.75 C 309.55 102.78 315.75 109.42 322.37 115.62 C 325.85 119.00 329.42 122.31 332.63 125.96 C 324.50 120.30 318.19 112.42 310.96 105.68 C 308.28 102.67 304.84 100.27 302.77 96.75 Z" />
<path fill="#3c2435" opacity="0.23" d=" M 117.72 126.03 C 119.34 124.04 121.18 122.26 123.04 120.51 C 122.08 122.97 120.21 125.07 117.72 126.03 Z" />
<path fill="#3c2435" opacity="0.23" d=" M 243.65 120.78 C 245.87 122.40 248.02 124.12 249.85 126.20 C 256.51 133.31 263.96 139.68 270.26 147.13 C 267.00 144.62 264.08 141.72 261.23 138.76 C 255.46 132.68 249.04 127.21 243.65 120.78 Z" />
<path fill="#3c2435" opacity="0.23" d=" M 1135.40 127.30 C 1141.51 127.24 1147.62 127.29 1153.74 127.25 L 1153.63 127.71 C 1147.72 127.58 1141.81 127.60 1135.91 127.69 C 1135.77 147.94 1136.21 168.21 1135.68 188.44 L 1135.64 189.00 C 1135.11 168.45 1135.62 147.86 1135.40 127.30 Z" />
<path fill="#3c2435" opacity="0.23" d=" M 337.32 130.60 C 337.37 130.65 337.46 130.74 337.51 130.79 C 337.46 130.74 337.37 130.65 337.32 130.60 Z" />
<path fill="#3c2435" opacity="0.23" d=" M 553.99 136.92 C 554.00 134.65 558.97 134.25 559.75 136.05 C 557.83 136.37 555.91 136.66 553.99 136.92 Z" />
<path fill="#3c2435" opacity="0.23" d=" M 1215.24 136.09 C 1215.94 134.20 1220.88 134.65 1221.03 136.81 C 1219.08 136.62 1217.14 136.39 1215.24 136.09 Z" />
<path fill="#3c2435" opacity="0.23" d=" M 319.06 136.82 C 323.75 139.72 327.49 143.82 331.36 147.68 C 335.75 152.24 340.37 156.58 344.82 161.09 C 346.98 163.35 349.64 165.22 351.21 168.00 C 340.32 157.79 329.50 147.49 319.06 136.82 Z" />
<path fill="#3c2435" opacity="0.23" d=" M 615.20 137.19 C 616.67 136.49 620.19 136.95 620.04 138.99 C 618.32 138.74 616.39 138.62 615.20 137.19 Z" />
<path fill="#3c2435" opacity="0.23" d=" M 1222.08 137.81 C 1224.63 140.54 1224.68 144.51 1224.87 148.02 C 1224.96 154.03 1224.90 160.04 1224.91 166.05 C 1224.74 169.53 1224.93 173.23 1223.24 176.41 C 1224.51 169.35 1224.11 162.15 1224.22 155.01 C 1224.09 149.24 1224.66 143.17 1222.08 137.81 Z" />
<path fill="#3c2435" opacity="0.23" d=" M 563.00 139.27 C 565.31 139.30 565.52 143.34 564.63 144.94 C 563.60 143.20 563.10 141.27 563.00 139.27 Z" />
<path fill="#3c2435" opacity="0.23" d=" M 771.71 139.54 C 772.11 139.53 772.92 139.51 773.32 139.50 C 774.10 143.83 775.45 148.07 775.71 152.49 C 774.29 148.56 774.08 144.30 772.46 140.45 C 770.64 146.31 770.35 152.55 768.25 158.34 C 768.86 151.98 770.87 145.86 771.71 139.54 Z" />
<path fill="#3c2435" opacity="0.23" d=" M 550.24 148.01 C 550.36 145.21 550.34 142.23 551.93 139.78 C 550.56 145.75 551.06 151.91 550.91 157.98 C 551.07 164.06 550.56 170.24 551.90 176.23 C 550.38 173.74 550.34 170.76 550.24 167.95 C 550.07 161.30 550.04 154.65 550.24 148.01 Z" />
<path fill="#3c2435" opacity="0.23" d=" M 1100.70 144.21 C 1102.28 144.62 1102.56 145.57 1101.54 147.06 C 1100.79 146.24 1100.51 145.29 1100.70 144.21 Z" />
<path fill="#3c2435" opacity="0.23" d=" M 1101.58 148.33 C 1103.26 148.13 1103.56 151.14 1102.46 152.03 C 1101.66 150.96 1101.40 149.64 1101.58 148.33 Z" />
<path fill="#3c2435" opacity="0.23" d=" M 1096.45 155.05 C 1095.39 154.12 1095.68 151.17 1097.34 151.29 C 1097.60 152.62 1097.21 153.95 1096.45 155.05 Z" />
<path fill="#3c2435" opacity="0.23" d=" M 775.80 152.88 C 777.39 157.18 778.18 161.75 778.66 166.30 C 774.68 165.74 770.00 167.58 766.48 165.40 C 770.32 166.03 774.22 166.18 778.11 165.92 C 777.36 161.57 776.38 157.26 775.80 152.88 Z" />
<path fill="#3c2435" opacity="0.23" d=" M 1095.48 160.01 C 1094.32 159.10 1094.69 156.12 1096.40 156.30 C 1096.53 157.61 1096.24 158.93 1095.48 160.01 Z" />
<path fill="#3c2435" opacity="0.23" d=" M 1103.68 158.36 C 1105.34 158.10 1105.68 161.10 1104.56 161.96 C 1103.80 160.91 1103.37 159.64 1103.68 158.36 Z" />
<path fill="#3c2435" opacity="0.23" d=" M 767.47 163.92 C 766.43 163.06 766.54 160.11 768.23 160.32 C 768.65 161.56 768.28 162.93 767.47 163.92 Z" />
<path fill="#3c2435" opacity="0.23" d=" M 842.56 159.95 L 842.58 160.17 C 842.27 162.28 841.90 164.38 841.48 166.46 C 841.01 166.43 840.08 166.37 839.61 166.34 C 839.51 165.76 839.30 164.59 839.20 164.01 C 839.50 164.82 840.03 165.40 840.77 165.75 C 841.47 163.85 841.87 161.86 842.56 159.95 Z" />
<path fill="#3c2435" opacity="0.23" d=" M 562.99 176.76 C 563.07 175.06 563.54 173.41 564.45 171.96 C 565.53 173.27 565.16 177.09 562.99 176.76 Z" />
<path fill="#3c2435" opacity="0.23" d=" M 329.71 175.88 C 339.74 184.93 349.62 194.20 358.81 204.10 C 357.74 205.20 356.59 206.22 355.30 207.06 C 355.53 206.42 355.98 205.13 356.21 204.49 C 346.72 204.58 337.23 204.57 327.74 204.73 C 327.64 204.31 327.44 203.48 327.33 203.06 C 330.40 204.32 333.77 203.97 337.01 203.99 C 343.82 203.87 350.63 204.14 357.45 203.86 C 353.25 198.96 348.07 195.03 343.68 190.30 C 339.12 185.40 333.76 181.24 329.71 175.88 Z" />
<path fill="#3c2435" opacity="0.23" d=" M 552.86 177.96 C 554.97 179.70 557.67 180.20 560.33 180.31 C 558.41 180.78 556.43 180.65 554.49 180.41 C 553.95 179.58 553.41 178.76 552.86 177.96 Z" />
<path fill="#3c2435" opacity="0.23" d=" M 302.75 178.92 C 304.25 178.96 305.01 179.74 305.04 181.24 C 303.72 181.01 302.95 180.23 302.75 178.92 Z" />
<path fill="#3c2435" opacity="0.23" d=" M 1215.23 179.90 C 1216.71 179.83 1218.20 179.80 1219.72 179.79 C 1219.60 181.64 1215.27 181.83 1215.23 179.90 Z" />
<path fill="#3c2435" opacity="0.23" d=" M 812.50 208.31 C 814.70 208.11 816.92 207.88 819.14 208.01 C 819.87 209.38 818.09 210.12 817.35 210.93 C 817.54 210.38 817.94 209.27 818.14 208.72 C 817.07 208.66 814.94 208.53 813.87 208.46 C 813.28 209.28 812.70 210.10 812.14 210.93 C 812.23 210.27 812.41 208.96 812.50 208.31 Z" />
<path fill="#3c2435" opacity="0.23" d=" M 777.32 210.27 C 779.14 210.25 780.97 210.24 782.81 210.23 C 782.86 213.10 782.86 215.98 782.80 218.86 C 780.97 218.81 779.15 218.77 777.34 218.74 C 777.35 215.91 777.35 213.09 777.32 210.27 M 777.88 210.62 C 777.83 213.22 777.81 215.82 777.82 218.42 C 779.36 218.42 780.90 218.42 782.45 218.42 C 782.44 215.81 782.42 213.20 782.39 210.58 C 780.87 210.59 779.37 210.61 777.88 210.62 Z" />
<path fill="#3c2435" opacity="0.23" d=" M 158.83 217.11 C 162.36 219.91 165.64 223.00 168.75 226.26 C 178.55 236.24 188.90 245.72 198.32 256.06 C 196.66 255.04 195.05 253.93 193.73 252.49 C 182.36 240.43 170.12 229.23 158.83 217.11 Z" />
<path fill="#3c2435" opacity="0.23" d=" M 537.07 229.96 C 540.51 228.52 545.12 228.35 548.00 231.05 C 544.52 229.65 540.75 229.30 537.07 229.96 Z" />
<path fill="#3c2435" opacity="0.23" d=" M 663.32 230.00 C 664.13 228.25 668.76 228.23 669.66 229.92 C 667.56 230.36 665.42 230.15 663.32 230.00 Z" />
<path fill="#3c2435" opacity="0.23" d=" M 705.70 229.83 C 708.46 228.72 711.62 228.59 714.35 229.89 C 711.47 229.64 708.57 229.61 705.70 229.83 Z" />
<path fill="#3c2435" opacity="0.23" d=" M 805.76 229.95 C 808.46 228.61 811.53 228.77 814.34 229.70 C 811.47 229.62 808.61 229.70 805.76 229.95 Z" />
<path fill="#3c2435" opacity="0.23" d=" M 656.62 239.10 C 655.64 237.75 656.02 234.11 658.15 234.36 C 658.15 236.07 657.64 237.72 656.62 239.10 Z" />
<path fill="#3c2435" opacity="0.23" d=" M 675.65 235.27 C 677.27 235.61 677.57 236.53 676.54 238.03 C 675.78 237.25 675.48 236.33 675.65 235.27 Z" />
<path fill="#3c2435" opacity="0.23" d=" M 819.89 237.20 L 820.77 237.39 L 821.16 238.40 L 820.64 239.17 C 820.45 238.68 820.08 237.69 819.89 237.20 Z" />
<path fill="#3c2435" opacity="0.23" d=" M 551.65 238.24 C 553.34 238.13 553.60 241.09 552.53 242.02 C 551.74 240.91 551.47 239.57 551.65 238.24 Z" />
<path fill="#3c2435" opacity="0.23" d=" M 799.44 241.99 C 798.30 241.10 798.60 238.04 800.34 238.31 C 800.51 239.61 800.15 240.90 799.44 241.99 Z" />
<path fill="#3c2435" opacity="0.23" d=" M 677.06 238.82 C 677.48 240.90 677.61 243.03 677.57 245.15 C 671.03 244.90 664.49 245.07 657.96 245.08 C 657.15 245.09 656.38 244.92 655.66 244.57 C 662.74 244.12 669.85 244.71 676.93 244.14 C 676.97 242.36 677.04 240.59 677.06 238.82 Z" />
<path fill="#3c2435" opacity="0.23" d=" M 151.41 239.93 C 155.59 242.18 158.51 246.00 161.86 249.24 C 182.41 269.79 202.93 290.35 223.53 310.84 C 224.72 310.21 225.92 309.58 227.11 308.93 C 226.17 310.55 224.63 311.31 222.78 311.28 C 218.18 305.86 212.37 301.67 207.66 296.35 C 190.33 279.31 173.30 261.96 155.98 244.91 C 154.37 243.33 152.90 241.62 151.41 239.93 Z" />
<path fill="#3c2435" opacity="0.23" d=" M 531.04 258.29 C 529.54 252.26 529.55 245.75 531.02 239.72 C 530.54 245.90 530.59 252.11 531.04 258.29 Z" />
<path fill="#3c2435" opacity="0.23" d=" M 720.20 239.71 C 722.04 246.32 721.87 253.63 719.91 260.19 C 720.88 253.38 721.19 246.54 720.20 239.71 Z" />
<path fill="#3c2435" opacity="0.23" d=" M 821.09 239.61 C 822.28 245.33 822.16 251.28 821.43 257.05 C 820.80 259.93 820.19 263.11 817.99 265.24 C 822.41 257.39 820.91 248.21 821.09 239.61 Z" />
<path fill="#3c2435" opacity="0.23" d=" M 698.67 255.90 C 698.38 250.88 697.93 245.71 699.08 240.77 C 698.92 249.23 698.25 258.14 702.27 265.92 C 699.51 263.38 699.29 259.36 698.67 255.90 Z" />
<path fill="#3c2435" opacity="0.23" d=" M 551.66 259.76 C 551.50 258.42 551.81 257.09 552.55 255.97 C 553.62 256.90 553.38 259.90 551.66 259.76 Z" />
<path fill="#3c2435" opacity="0.23" d=" M 799.47 256.00 C 800.20 257.07 800.52 258.38 800.33 259.68 C 798.60 259.94 798.34 256.88 799.47 256.00 Z" />
<path fill="#3c2435" opacity="0.23" d=" M 199.98 257.73 C 202.67 259.89 205.15 262.30 207.30 265.01 C 204.17 263.36 201.64 260.85 199.98 257.73 Z" />
<path fill="#3c2435" opacity="0.23" d=" M 532.45 261.91 C 533.37 262.63 534.02 263.64 534.17 264.82 C 532.59 265.75 531.22 262.95 532.45 261.91 Z" />
<path fill="#3c2435" opacity="0.23" d=" M 710.79 268.98 C 713.46 268.08 715.94 266.69 718.13 264.91 C 716.84 267.88 713.82 268.92 710.79 268.98 Z" />
<path fill="#3c2435" opacity="0.23" d=" M 803.50 266.39 C 803.53 266.41 803.58 266.47 803.61 266.50 C 803.58 266.47 803.53 266.41 803.50 266.39 Z" />
<path fill="#3c2435" opacity="0.23" d=" M 209.18 266.95 C 210.95 267.64 212.23 269.01 213.11 270.66 C 210.64 271.34 209.11 269.20 209.18 266.95 Z" />
<path fill="#3c2435" opacity="0.23" d=" M 542.95 268.84 C 543.42 268.64 544.36 268.23 544.83 268.03 L 544.69 268.90 C 544.26 268.88 543.39 268.86 542.95 268.84 Z" />
<path fill="#3c2435" opacity="0.23" d=" M 127.94 270.02 C 128.27 270.42 128.93 271.24 129.27 271.65 L 128.34 271.71 L 127.66 270.87 L 127.94 270.02 Z" />
<path fill="#3c2435" opacity="0.23" d=" M 214.90 272.83 C 216.23 272.95 217.01 273.68 217.22 275.02 C 215.75 275.03 214.97 274.30 214.90 272.83 Z" />
<path fill="#3c2435" opacity="0.23" d=" M 131.45 273.88 C 135.56 276.93 138.96 280.78 142.79 284.15 C 153.98 295.31 165.16 306.49 176.31 317.69 C 179.38 320.78 182.78 323.60 185.19 327.28 C 182.17 325.61 180.05 322.83 177.65 320.43 C 163.33 306.19 149.13 291.81 134.67 277.71 C 133.45 276.56 132.39 275.26 131.45 273.88 Z" />
</g>
<g id="#12112dff">
<path fill="#12112d" opacity="1.00" d=" M 236.60 114.18 C 236.77 114.33 237.11 114.63 237.28 114.79 C 239.50 116.68 241.61 118.68 243.65 120.78 C 249.04 127.21 255.46 132.68 261.23 138.76 C 264.08 141.72 267.00 144.62 270.26 147.13 C 281.06 157.75 291.74 168.51 302.75 178.92 C 302.95 180.23 303.72 181.01 305.04 181.24 C 312.49 188.49 319.84 195.85 327.33 203.06 C 327.44 203.48 327.64 204.31 327.74 204.73 C 327.65 205.35 327.47 206.60 327.38 207.23 C 326.85 207.42 325.79 207.82 325.26 208.02 C 320.48 213.24 314.98 217.77 310.27 223.07 C 302.29 232.15 292.95 239.89 284.71 248.71 C 278.90 253.92 274.53 260.47 268.72 265.66 C 265.01 268.99 262.11 273.10 258.38 276.41 C 249.85 284.64 241.94 293.50 233.66 301.98 C 235.21 300.11 236.89 298.35 238.67 296.70 C 237.51 295.10 236.31 293.51 234.87 292.16 C 228.90 286.53 223.27 280.55 217.22 275.02 C 217.01 273.68 216.23 272.95 214.90 272.83 C 214.29 272.11 213.69 271.39 213.11 270.66 C 212.23 269.01 210.95 267.64 209.18 266.95 C 208.55 266.30 207.92 265.65 207.30 265.01 C 205.15 262.30 202.67 259.89 199.98 257.73 C 199.42 257.17 198.87 256.61 198.32 256.06 C 188.90 245.72 178.55 236.24 168.75 226.26 C 165.64 223.00 162.36 219.91 158.83 217.11 C 154.94 213.15 151.01 209.23 146.96 205.44 L 146.73 205.27 C 150.82 200.86 155.05 196.60 159.46 192.51 C 172.15 179.49 184.98 166.62 197.85 153.79 C 210.38 140.21 223.95 127.64 236.60 114.18 M 236.89 162.10 C 233.73 172.84 230.06 183.43 227.00 194.20 C 215.64 194.44 204.28 194.31 192.92 194.50 C 194.66 196.68 197.18 197.97 199.37 199.63 C 206.36 204.72 213.40 209.75 220.35 214.91 C 216.74 225.57 213.55 236.37 210.16 247.11 C 219.61 240.84 228.54 233.73 237.81 227.17 C 247.10 233.71 256.15 240.62 265.65 246.85 C 262.50 236.06 258.76 225.43 254.99 214.83 C 263.22 207.96 272.13 201.92 280.64 195.41 C 281.02 195.01 281.78 194.20 282.16 193.79 C 270.85 193.44 259.55 194.45 248.26 194.05 C 245.03 185.82 242.68 177.28 239.73 168.95 C 238.77 166.67 238.77 163.89 236.89 162.10 Z" />
<path fill="#12112d" opacity="1.00" d=" M 124.56 267.31 C 124.59 267.34 124.66 267.40 124.69 267.44 C 124.66 267.40 124.59 267.34 124.56 267.31 Z" />
</g>
<g id="#1a285eff">
<path fill="#1a285e" opacity="1.00" d=" M 550.59 126.78 C 558.09 125.41 566.40 125.84 573.01 129.98 C 578.95 133.87 580.36 141.40 581.00 147.97 C 581.63 157.70 581.95 167.72 579.30 177.19 C 577.75 182.95 572.78 187.35 567.03 188.69 C 559.51 190.64 551.09 190.50 544.05 186.97 C 538.39 184.10 535.95 177.56 535.14 171.63 C 533.39 160.61 533.49 149.14 536.56 138.37 C 538.40 132.06 544.21 127.69 550.59 126.78 M 553.99 136.92 C 552.99 137.61 552.40 138.70 551.93 139.78 C 550.34 142.23 550.36 145.21 550.24 148.01 C 550.04 154.65 550.07 161.30 550.24 167.95 C 550.34 170.76 550.38 173.74 551.90 176.23 C 552.14 176.66 552.62 177.52 552.86 177.96 C 553.41 178.76 553.95 179.58 554.49 180.41 C 556.43 180.65 558.41 180.78 560.33 180.31 C 561.39 179.32 563.02 178.41 562.99 176.76 C 565.16 177.09 565.53 173.27 564.45 171.96 C 565.93 168.20 565.08 163.98 565.31 160.02 C 565.09 155.00 565.91 149.84 564.63 144.94 C 565.52 143.34 565.31 139.30 563.00 139.27 C 562.90 137.65 561.39 136.09 559.75 136.05 C 558.97 134.25 554.00 134.65 553.99 136.92 Z" />
<path fill="#1a285e" opacity="1.00" d=" M 1033.96 128.11 C 1041.56 125.29 1050.18 125.38 1057.73 128.32 C 1065.10 131.41 1067.76 140.51 1066.69 147.82 C 1061.94 148.52 1056.98 148.11 1052.17 147.89 C 1051.88 144.65 1052.21 141.22 1050.88 138.19 C 1049.27 135.00 1044.94 134.44 1042.02 135.95 C 1038.89 137.76 1038.70 141.74 1038.33 144.93 C 1037.85 152.61 1038.03 160.32 1038.18 168.01 C 1038.47 171.80 1038.26 176.09 1040.87 179.18 C 1043.70 181.77 1049.19 181.55 1050.98 177.82 C 1052.84 173.90 1052.66 169.40 1052.70 165.16 C 1057.67 164.87 1062.65 164.95 1067.63 165.15 C 1067.39 171.73 1067.15 179.25 1062.17 184.21 C 1057.40 188.86 1050.31 189.78 1043.96 190.00 C 1038.02 189.76 1031.27 188.60 1027.37 183.65 C 1023.21 178.81 1023.01 172.09 1022.29 166.07 C 1021.56 157.43 1021.83 148.62 1023.80 140.15 C 1024.91 134.75 1028.86 130.16 1033.96 128.11 Z" />
<path fill="#1a285e" opacity="1.00" d=" M 1210.57 126.73 C 1217.80 125.33 1225.78 125.95 1232.19 129.80 C 1237.98 133.43 1239.75 140.57 1240.38 146.95 C 1241.78 156.27 1241.17 165.78 1239.44 175.02 C 1238.34 180.16 1235.28 185.11 1230.34 187.32 C 1222.44 190.83 1213.12 190.80 1205.11 187.68 C 1200.79 186.06 1197.59 182.25 1196.17 177.93 C 1193.32 169.61 1193.72 160.68 1193.81 152.01 C 1194.00 146.33 1194.82 140.49 1197.37 135.35 C 1199.89 130.38 1205.23 127.57 1210.57 126.73 M 1215.24 136.09 L 1214.08 136.13 C 1210.78 138.66 1210.22 143.13 1209.80 146.97 C 1209.60 153.64 1209.73 160.30 1209.76 166.97 C 1209.94 170.62 1210.12 174.56 1212.12 177.75 C 1212.91 178.68 1213.69 180.33 1215.23 179.90 C 1215.27 181.83 1219.60 181.64 1219.72 179.79 C 1221.53 179.76 1222.34 177.70 1223.24 176.41 C 1224.93 173.23 1224.74 169.53 1224.91 166.05 C 1224.90 160.04 1224.96 154.03 1224.87 148.02 C 1224.68 144.51 1224.63 140.54 1222.08 137.81 C 1221.82 137.56 1221.29 137.06 1221.03 136.81 C 1220.88 134.65 1215.94 134.20 1215.24 136.09 Z" />
<path fill="#1a285e" opacity="1.00" d=" M 700.12 127.46 C 712.96 127.52 725.81 127.58 738.66 127.46 C 739.14 131.13 739.17 134.85 738.63 138.51 C 730.81 138.54 722.98 138.22 715.17 138.65 C 715.25 142.98 715.13 147.31 715.32 151.64 C 722.61 151.84 729.92 151.70 737.22 151.72 C 737.38 155.31 737.35 158.89 737.33 162.48 C 729.96 162.86 722.55 162.08 715.21 162.89 C 715.24 167.77 715.13 172.66 715.32 177.54 C 723.46 177.72 731.61 177.45 739.75 177.72 C 739.65 181.36 739.65 185.01 739.71 188.66 C 726.51 188.71 713.27 189.61 700.08 188.57 C 699.65 176.06 700.01 163.54 699.89 151.02 C 700.01 143.17 699.62 135.30 700.12 127.46 Z" />
<path fill="#1a285e" opacity="1.00" d=" M 809.17 127.45 C 816.67 127.58 824.18 127.56 831.69 127.45 C 834.32 139.61 836.85 151.79 839.20 164.01 C 839.30 164.59 839.51 165.76 839.61 166.34 C 840.08 166.37 841.01 166.43 841.48 166.46 C 841.90 164.38 842.27 162.28 842.58 160.17 C 844.62 149.30 847.14 138.52 848.94 127.61 C 856.47 127.39 864.01 127.64 871.54 127.46 C 871.83 147.84 871.49 168.23 871.68 188.61 C 869.78 188.83 867.85 189.11 865.99 188.63 C 863.29 188.11 860.52 188.23 857.80 188.17 C 857.87 175.11 857.62 162.04 857.81 148.98 C 857.93 146.67 857.41 144.42 856.72 142.24 C 856.03 143.62 855.34 145.02 855.19 146.58 C 852.58 160.60 849.13 174.44 846.36 188.43 C 842.35 189.09 838.28 189.17 834.27 188.55 C 831.13 174.56 827.74 160.62 824.78 146.59 C 824.68 145.56 824.58 144.53 824.50 143.51 L 823.81 142.83 C 823.48 142.71 822.83 142.48 822.51 142.36 C 821.88 156.93 822.61 171.52 822.21 186.09 C 822.33 187.79 820.58 188.27 819.32 188.68 C 816.12 188.80 812.86 188.43 809.69 189.12 C 808.47 186.23 809.01 183.04 808.93 180.00 C 809.10 162.49 808.62 144.95 809.17 127.45 Z" />
<path fill="#1a285e" opacity="1.00" d=" M 1090.46 127.45 C 1096.84 127.65 1103.23 127.37 1109.61 127.58 C 1111.68 132.47 1112.48 137.90 1114.14 142.99 C 1118.36 158.15 1122.31 173.40 1126.72 188.52 C 1121.41 189.07 1115.99 189.44 1110.72 188.50 C 1110.07 184.64 1109.27 180.81 1108.39 177.00 C 1102.78 176.93 1097.18 177.03 1091.58 176.93 C 1090.41 180.40 1090.09 184.07 1089.21 187.61 C 1089.06 189.08 1087.14 188.64 1086.19 188.96 C 1081.83 188.97 1077.49 188.59 1073.13 188.69 C 1078.98 168.30 1084.57 147.83 1090.46 127.45 M 1099.22 139.97 C 1098.82 143.77 1097.14 147.44 1097.34 151.29 C 1095.68 151.17 1095.39 154.12 1096.45 155.05 L 1096.40 156.30 C 1094.69 156.12 1094.32 159.10 1095.48 160.01 C 1094.36 161.80 1094.47 163.99 1094.20 166.00 C 1097.96 165.98 1101.73 165.99 1105.51 165.93 C 1105.42 164.54 1105.10 163.21 1104.56 161.96 C 1105.68 161.10 1105.34 158.10 1103.68 158.36 C 1103.92 156.20 1103.46 153.94 1102.46 152.03 C 1103.56 151.14 1103.26 148.13 1101.58 148.33 L 1101.54 147.06 C 1102.56 145.57 1102.28 144.62 1100.70 144.21 C 1100.81 142.75 1100.94 140.58 1099.22 139.97 Z" />
<path fill="#1a285e" opacity="1.00" d=" M 475.97 127.58 C 482.03 127.47 488.08 127.51 494.14 127.58 C 498.04 139.66 501.85 151.79 506.05 163.77 C 506.52 163.86 507.47 164.04 507.95 164.14 C 507.94 151.94 507.94 139.75 507.93 127.55 C 512.68 127.49 517.43 127.50 522.18 127.56 C 522.13 147.42 522.22 167.28 522.12 187.13 C 522.46 189.06 520.20 189.03 518.94 189.01 C 514.11 189.19 509.30 188.82 504.48 188.52 C 500.20 176.12 496.50 163.51 491.96 151.21 C 491.48 151.13 490.50 150.97 490.02 150.89 C 489.88 163.42 490.23 175.97 489.84 188.49 C 485.28 188.99 480.68 189.20 476.12 188.63 C 475.77 168.29 476.07 147.93 475.97 127.58 Z" />
<path fill="#1a285e" opacity="1.00" d=" M 593.57 127.50 C 603.37 127.62 613.18 127.38 622.99 127.61 C 628.55 127.76 634.62 130.61 636.65 136.12 C 639.05 142.16 638.51 150.12 633.60 154.77 C 631.95 156.58 628.63 156.40 627.79 158.92 C 631.70 159.58 635.83 161.74 636.70 165.97 C 637.85 172.41 637.39 179.05 638.36 185.54 C 638.52 186.97 639.81 187.76 640.76 188.68 C 635.50 188.41 630.24 189.52 624.99 188.85 C 623.97 188.63 623.41 188.00 623.30 186.96 C 621.09 179.42 623.95 171.02 620.08 163.85 C 616.48 163.00 612.78 162.97 609.11 163.10 C 608.80 171.58 609.22 180.07 608.88 188.55 C 603.76 189.17 598.58 189.22 593.49 188.43 C 593.71 168.12 593.56 147.81 593.57 127.50 M 608.75 137.42 C 609.05 142.71 608.83 148.01 608.85 153.30 C 611.55 153.32 614.32 153.64 616.99 153.04 C 623.17 152.08 624.39 142.52 620.04 138.99 C 620.19 136.95 616.67 136.49 615.20 137.19 C 613.04 136.98 610.88 137.08 608.75 137.42 Z" />
<path fill="#1a285e" opacity="1.00" d=" M 646.82 127.59 C 661.54 127.44 676.25 127.51 690.97 127.55 C 691.04 131.20 691.07 134.87 690.70 138.52 C 685.97 138.41 681.24 138.46 676.51 138.43 C 676.28 155.11 676.39 171.79 676.46 188.47 C 671.32 188.77 666.14 189.19 661.02 188.42 C 660.87 171.74 661.26 155.06 660.82 138.39 C 656.16 138.50 651.50 138.48 646.84 138.41 C 646.82 134.80 646.82 131.19 646.82 127.59 Z" />
<path fill="#1a285e" opacity="1.00" d=" M 763.09 127.59 C 769.68 127.48 776.28 127.49 782.87 127.58 C 788.27 147.94 793.85 168.26 799.60 188.53 C 794.31 189.17 788.92 189.32 783.65 188.47 C 783.00 184.63 782.12 180.83 781.24 177.04 C 775.58 176.93 769.92 176.93 764.27 177.04 C 763.33 180.85 762.60 184.70 761.83 188.54 C 756.57 188.97 751.31 188.66 746.05 188.64 C 751.66 168.27 757.61 147.99 763.09 127.59 M 771.71 139.54 C 770.87 145.86 768.86 151.98 768.25 158.34 L 767.98 159.17 L 768.23 160.32 C 766.54 160.11 766.43 163.06 767.47 163.92 L 766.48 165.40 C 770.00 167.58 774.68 165.74 778.66 166.30 C 778.18 161.75 777.39 157.18 775.80 152.88 L 775.71 152.49 C 775.45 148.07 774.10 143.83 773.32 139.50 C 772.92 139.51 772.11 139.53 771.71 139.54 Z" />
<path fill="#1a285e" opacity="1.00" d=" M 885.76 127.54 C 898.67 127.47 911.58 127.56 924.50 127.49 C 924.44 131.14 924.45 134.79 924.51 138.44 C 916.74 138.52 908.98 138.42 901.21 138.47 C 901.00 142.87 901.01 147.28 901.19 151.68 C 908.46 151.81 915.74 151.67 923.02 151.76 C 923.08 155.38 923.09 159.00 922.85 162.62 C 915.60 162.54 908.35 162.49 901.10 162.63 C 901.10 167.66 900.97 172.70 901.20 177.74 C 909.29 177.48 917.38 177.61 925.47 177.67 C 925.45 181.29 925.44 184.90 925.55 188.52 C 916.04 189.36 906.50 188.88 896.98 189.00 C 893.21 188.89 889.36 189.42 885.67 188.44 C 885.84 168.14 885.67 147.84 885.76 127.54 Z" />
<path fill="#1a285e" opacity="1.00" d=" M 936.32 127.51 C 945.88 127.56 955.45 127.43 965.02 127.56 C 969.58 127.56 974.29 129.19 977.47 132.53 C 981.82 137.92 982.03 145.89 978.91 151.91 C 977.35 154.81 974.37 156.31 971.50 157.58 C 971.31 157.93 970.94 158.62 970.75 158.96 C 973.77 159.59 977.05 160.62 978.65 163.52 C 982.53 171.40 978.29 181.10 982.92 188.68 C 977.46 188.51 971.96 189.68 966.54 188.55 C 965.28 182.78 964.90 176.86 964.95 170.96 C 964.97 168.07 964.16 164.43 961.06 163.42 C 957.95 162.73 954.74 163.12 951.60 163.26 C 952.06 171.68 952.27 180.14 951.74 188.56 C 946.60 189.11 941.41 189.26 936.28 188.63 C 936.40 168.26 936.35 147.88 936.32 127.51 M 951.94 137.42 C 952.00 142.68 952.01 147.93 952.07 153.19 C 954.72 153.20 957.44 153.54 960.06 152.90 C 966.50 151.51 967.27 141.25 961.82 138.16 C 958.68 136.89 955.23 137.03 951.94 137.42 Z" />
<path fill="#1a285e" opacity="1.00" d=" M 994.43 127.52 C 999.48 127.50 1004.53 127.57 1009.59 127.47 C 1010.46 134.27 1009.79 141.15 1010.00 147.98 C 1009.78 161.51 1010.49 175.07 1009.56 188.57 C 1004.53 189.37 999.47 188.84 994.44 188.53 C 994.45 168.19 994.45 147.86 994.43 127.52 Z" />
<path fill="#1a285e" opacity="1.00" d=" M 1135.91 127.69 C 1141.81 127.60 1147.72 127.58 1153.63 127.71 C 1157.26 139.17 1161.17 150.54 1164.85 161.98 C 1164.98 163.34 1165.97 164.57 1167.42 163.77 C 1167.56 151.69 1167.25 139.60 1167.51 127.52 C 1172.20 127.51 1176.90 127.52 1181.60 127.51 C 1181.54 147.86 1181.50 168.22 1181.61 188.58 C 1175.77 188.98 1169.91 188.68 1164.07 188.63 C 1160.04 177.16 1156.39 165.55 1152.56 154.01 C 1151.85 152.26 1151.83 149.49 1149.24 149.83 C 1149.25 162.71 1149.19 175.58 1149.28 188.46 C 1144.74 188.30 1140.13 189.52 1135.68 188.44 C 1136.21 168.21 1135.77 147.94 1135.91 127.69 Z" />
<path fill="#1a285e" opacity="1.00" d=" M 114.10 205.87 C 115.57 206.16 116.45 204.97 117.52 204.29 L 118.27 204.56 C 119.78 205.14 121.38 205.43 123.00 205.40 C 130.91 205.39 138.82 205.23 146.73 205.27 L 146.96 205.44 C 137.39 205.33 127.82 205.53 118.25 205.47 C 118.42 206.78 118.93 208.08 119.92 209.00 C 125.61 214.70 131.44 220.27 137.06 226.06 C 132.86 222.92 129.32 219.04 125.58 215.40 C 122.99 212.88 120.77 209.80 117.37 208.30 C 117.22 207.78 116.92 206.74 116.77 206.22 C 111.63 205.92 106.47 206.14 101.33 206.05 L 101.36 205.91 C 105.60 205.90 109.86 206.06 114.10 205.87 Z" />
<path fill="#1a285e" opacity="1.00" d=" M 812.14 210.93 C 812.70 210.10 813.28 209.28 813.87 208.46 C 814.94 208.53 817.07 208.66 818.14 208.72 C 817.94 209.27 817.54 210.38 817.35 210.93 C 814.95 213.94 812.80 217.18 810.13 219.95 C 809.31 219.93 807.68 219.87 806.86 219.85 C 808.52 216.82 810.20 213.80 812.14 210.93 Z" />
<path fill="#1a285e" opacity="1.00" d=" M 481.25 217.25 C 486.72 208.81 498.95 207.54 507.51 211.57 C 513.69 214.31 516.36 221.32 516.64 227.67 C 514.85 227.77 513.06 227.86 511.28 227.91 C 510.90 224.62 510.69 221.04 508.38 218.44 C 504.22 212.54 495.22 211.74 489.45 215.62 C 485.68 218.26 483.69 222.69 482.68 227.05 C 480.72 236.36 480.68 246.11 482.72 255.41 C 483.95 260.90 487.26 266.70 493.06 268.23 C 497.37 269.14 502.50 269.04 505.91 265.86 C 510.09 262.28 511.36 256.62 512.06 251.41 C 513.68 251.38 515.31 251.34 516.94 251.31 C 517.11 258.44 514.03 266.00 507.98 270.07 C 505.06 272.09 501.41 272.27 498.04 272.97 C 493.52 272.40 488.62 272.13 485.01 268.99 C 478.56 263.73 476.87 254.90 476.08 247.04 C 475.52 236.96 475.87 226.12 481.25 217.25 Z" />
<path fill="#1a285e" opacity="1.00" d=" M 777.88 210.62 C 779.37 210.61 780.87 210.59 782.39 210.58 C 782.42 213.20 782.44 215.81 782.45 218.42 C 780.90 218.42 779.36 218.42 777.82 218.42 C 777.81 215.82 777.83 213.22 777.88 210.62 Z" />
<path fill="#1a285e" opacity="1.00" d=" M 537.41 225.70 C 543.12 224.55 549.82 225.57 553.75 230.22 C 558.14 235.36 558.63 242.50 558.94 248.96 C 558.72 255.48 558.11 262.63 553.73 267.83 C 549.27 273.23 541.24 273.61 534.98 271.68 C 528.61 269.27 525.79 262.33 524.97 256.04 C 524.15 248.27 524.13 239.93 527.84 232.82 C 529.60 229.06 533.42 226.54 537.41 225.70 M 537.07 229.96 C 533.69 232.10 531.65 235.84 531.02 239.72 C 529.55 245.75 529.54 252.26 531.04 258.29 C 531.32 259.53 531.30 261.08 532.45 261.91 C 531.22 262.95 532.59 265.75 534.17 264.82 C 535.33 268.13 539.79 269.26 542.95 268.84 C 543.39 268.86 544.26 268.88 544.69 268.90 L 544.83 268.03 C 548.54 267.93 551.49 263.31 551.66 259.76 C 553.38 259.90 553.62 256.90 552.55 255.97 C 553.70 251.58 553.72 246.38 552.53 242.02 C 553.60 241.09 553.34 238.13 551.65 238.24 C 551.79 235.42 549.76 233.04 548.00 231.05 C 545.12 228.35 540.51 228.52 537.07 229.96 Z" />
<path fill="#1a285e" opacity="1.00" d=" M 578.55 227.62 C 583.40 224.53 589.87 224.53 594.93 227.11 C 598.35 229.09 599.60 233.27 599.52 237.00 C 599.44 248.65 599.57 260.29 599.49 271.94 C 597.83 271.86 596.19 271.80 594.55 271.73 C 594.76 261.15 594.54 250.55 594.65 239.96 C 594.70 236.59 594.21 232.81 591.42 230.54 C 585.27 226.53 575.10 230.03 574.29 237.85 C 573.63 249.17 574.31 260.54 573.94 271.88 C 572.27 271.87 570.62 271.85 568.97 271.84 C 568.90 256.67 568.95 241.50 568.94 226.34 C 570.39 226.36 571.85 226.39 573.32 226.43 C 573.29 228.32 573.28 230.22 573.31 232.12 C 575.67 231.44 576.53 228.83 578.55 227.62 Z" />
<path fill="#1a285e" opacity="1.00" d=" M 617.09 228.01 C 623.01 224.32 631.25 224.08 637.04 228.18 C 640.63 230.61 641.47 235.25 642.25 239.21 C 640.68 239.27 639.13 239.34 637.59 239.41 C 636.48 235.70 635.32 231.17 631.27 229.67 C 626.75 228.15 620.76 228.79 618.09 233.23 C 614.67 239.19 615.04 246.40 615.16 253.04 C 615.64 258.36 616.21 264.81 621.13 268.02 C 624.84 269.72 629.67 269.50 632.94 266.90 C 635.58 264.30 636.58 260.59 637.33 257.07 C 638.89 257.08 640.45 257.10 642.03 257.13 C 641.55 263.08 638.51 269.20 632.79 271.65 C 626.61 273.75 618.65 273.04 614.39 267.58 C 609.90 261.44 609.49 253.41 609.75 246.07 C 610.21 239.60 611.47 232.10 617.09 228.01 Z" />
<path fill="#1a285e" opacity="1.00" d=" M 654.37 231.35 C 657.70 226.22 664.42 224.64 670.16 225.51 C 673.94 225.96 677.84 227.74 679.79 231.17 C 682.96 236.52 683.41 242.95 683.24 249.03 C 674.04 249.04 664.84 249.02 655.64 249.04 C 655.57 254.71 655.37 261.10 659.14 265.77 C 661.83 269.47 667.22 269.72 671.22 268.33 C 675.75 266.59 677.02 261.33 678.11 257.12 C 679.72 257.12 681.34 257.13 682.97 257.14 C 682.13 262.73 679.61 268.55 674.29 271.20 C 669.52 273.27 663.80 273.25 659.07 271.07 C 652.98 267.80 650.90 260.45 650.36 254.03 C 650.07 246.37 649.83 237.95 654.37 231.35 M 663.32 230.00 C 660.98 229.95 658.41 232.03 658.15 234.36 C 656.02 234.11 655.64 237.75 656.62 239.10 C 655.60 240.71 656.04 242.77 655.66 244.57 C 656.38 244.92 657.15 245.09 657.96 245.08 C 664.49 245.07 671.03 244.90 677.57 245.15 C 677.61 243.03 677.48 240.90 677.06 238.82 L 676.54 238.03 C 677.57 236.53 677.27 235.61 675.65 235.27 C 675.74 232.61 672.85 231.21 671.09 229.69 L 669.66 229.92 C 668.76 228.23 664.13 228.25 663.32 230.00 Z" />
<path fill="#1a285e" opacity="1.00" d=" M 703.87 226.75 C 708.08 224.82 713.08 224.90 717.38 226.51 C 722.27 228.65 724.70 233.90 725.69 238.86 C 727.36 247.47 727.43 256.86 723.71 264.97 C 720.01 274.19 705.14 275.67 699.70 267.44 C 699.38 267.31 698.74 267.07 698.42 266.94 C 698.42 273.70 698.42 280.45 698.40 287.21 C 696.72 287.09 695.06 286.98 693.39 286.89 C 693.55 266.72 693.51 246.54 693.41 226.37 C 694.88 226.35 696.36 226.33 697.86 226.31 C 697.82 227.96 697.79 229.60 697.80 231.24 C 700.58 230.91 701.44 227.77 703.87 226.75 M 705.70 229.83 C 701.80 232.09 699.51 236.36 699.08 240.77 C 697.93 245.71 698.38 250.88 698.67 255.90 C 699.29 259.36 699.51 263.38 702.27 265.92 C 704.30 268.42 707.74 269.04 710.79 268.98 C 713.82 268.92 716.84 267.88 718.13 264.91 C 719.03 263.48 719.66 261.87 719.91 260.19 C 721.87 253.63 722.04 246.32 720.20 239.71 C 719.73 235.85 717.77 231.91 714.35 229.89 C 711.62 228.59 708.46 228.72 705.70 229.83 Z" />
<path fill="#1a285e" opacity="1.00" d=" M 740.94 228.93 C 746.59 224.29 755.18 224.13 761.42 227.70 C 765.38 230.09 766.56 234.93 767.24 239.18 C 765.68 239.25 764.13 239.32 762.58 239.40 C 761.36 235.73 760.29 231.14 756.22 229.64 C 751.96 228.33 746.34 228.59 743.58 232.60 C 740.29 237.34 740.16 243.43 740.09 248.99 C 740.14 254.63 740.30 260.76 743.55 265.61 C 746.30 269.54 751.91 269.78 756.03 268.14 C 760.05 266.10 761.26 261.41 762.34 257.40 C 763.53 256.61 767.59 256.34 766.85 258.78 C 766.00 264.36 762.62 270.02 757.05 271.88 C 751.24 273.55 744.00 272.96 739.83 268.13 C 735.16 262.60 734.78 254.91 734.75 248.00 C 734.81 241.30 735.83 233.77 740.94 228.93 Z" />
<path fill="#1a285e" opacity="1.00" d=" M 806.42 225.65 C 812.07 224.56 818.71 225.74 822.50 230.43 C 826.77 235.93 827.38 243.26 827.26 249.99 C 827.39 256.10 826.24 262.54 822.54 267.55 C 815.69 275.76 800.08 274.25 795.83 264.05 C 792.31 255.69 792.38 246.14 794.53 237.43 C 795.97 231.78 800.38 226.44 806.42 225.65 M 805.76 229.95 C 802.82 231.59 800.27 234.85 800.34 238.31 C 798.60 238.04 798.30 241.10 799.44 241.99 C 798.24 246.38 798.14 251.64 799.47 256.00 C 798.34 256.88 798.60 259.94 800.33 259.68 C 800.04 262.29 801.90 264.53 803.50 266.39 C 803.53 266.41 803.58 266.47 803.61 266.50 C 807.54 270.10 814.86 269.77 817.99 265.24 C 820.19 263.11 820.80 259.93 821.43 257.05 C 822.16 251.28 822.28 245.33 821.09 239.61 L 820.64 239.17 L 821.16 238.40 L 820.77 237.39 L 819.89 237.20 C 819.78 233.91 817.01 231.29 814.34 229.70 C 811.53 228.77 808.46 228.61 805.76 229.95 Z" />
<path fill="#1a285e" opacity="1.00" d=" M 849.35 226.47 C 854.70 224.48 861.86 224.61 865.80 229.25 C 868.08 231.93 868.13 235.67 868.13 239.01 C 868.04 249.95 868.20 260.90 868.04 271.84 C 866.38 271.82 864.73 271.81 863.10 271.80 C 862.82 260.17 863.16 248.53 862.93 236.90 C 862.99 233.73 861.12 230.42 857.97 229.49 C 853.93 228.49 848.99 228.68 846.00 231.97 C 843.32 234.13 842.37 237.64 842.48 240.96 C 842.52 251.24 842.42 261.53 842.55 271.82 C 840.79 271.82 839.04 271.82 837.30 271.82 C 837.44 256.68 837.34 241.54 837.36 226.39 C 838.86 226.35 840.37 226.31 841.90 226.27 C 841.95 227.92 842.01 229.57 842.09 231.22 C 845.14 230.72 846.41 227.25 849.35 226.47 Z" />
<path fill="#1a285e" opacity="1.00" d=" M 777.80 226.26 C 779.37 226.31 780.95 226.34 782.55 226.39 C 782.54 241.52 782.42 256.65 782.61 271.78 C 780.97 271.82 779.34 271.86 777.72 271.91 C 777.72 256.69 777.56 241.47 777.80 226.26 Z" />
<path fill="#1a285e" opacity="1.00" d=" M 89.24 262.06 C 91.34 263.79 93.14 265.85 95.00 267.82 C 92.98 266.01 91.10 264.04 89.24 262.06 Z" />
</g>
<g id="#fffefeff">
<path fill="#fffefe" opacity="1.00" d=" M 822.51 142.36 C 822.83 142.48 823.48 142.71 823.81 142.83 L 824.50 143.51 C 824.58 144.53 824.68 145.56 824.78 146.59 C 824.33 146.02 823.22 144.24 822.79 145.84 C 822.27 160.06 822.48 174.33 822.72 188.57 C 821.57 188.60 820.44 188.63 819.32 188.68 C 820.58 188.27 822.33 187.79 822.21 186.09 C 822.61 171.52 821.88 156.93 822.51 142.36 Z" />
<path fill="#fffefe" opacity="1.00" d=" M 856.72 142.24 C 857.41 144.42 857.93 146.67 857.81 148.98 C 857.62 162.04 857.87 175.11 857.80 188.17 C 860.52 188.23 863.29 188.11 865.99 188.63 C 863.17 188.67 860.35 188.56 857.54 188.52 C 857.38 177.02 857.48 165.51 857.37 154.01 C 857.32 151.28 858.20 148.44 857.19 145.80 C 856.66 144.32 855.63 146.04 855.19 146.58 C 855.34 145.02 856.03 143.62 856.72 142.24 Z" />
<path fill="#fffefe" opacity="1.00" d=" M 236.89 162.10 C 238.77 163.89 238.77 166.67 239.73 168.95 C 242.68 177.28 245.03 185.82 248.26 194.05 C 259.55 194.45 270.85 193.44 282.16 193.79 C 281.78 194.20 281.02 195.01 280.64 195.41 C 272.13 201.92 263.22 207.96 254.99 214.83 C 258.76 225.43 262.50 236.06 265.65 246.85 C 256.15 240.62 247.10 233.71 237.81 227.17 C 228.54 233.73 219.61 240.84 210.16 247.11 C 213.55 236.37 216.74 225.57 220.35 214.91 C 213.40 209.75 206.36 204.72 199.37 199.63 C 197.18 197.97 194.66 196.68 192.92 194.50 C 204.28 194.31 215.64 194.44 227.00 194.20 C 230.06 183.43 233.73 172.84 236.89 162.10 Z" />
</g>
</svg>
